# xmcd
#
# Track frame offsets:
#	182
#	20290
#	32220
#	55712
#	70487
#	88415
#	111885
#	151090
#
# Disc length: 2326 seconds
#
# Revision: 1
# Processed by: cddbd v1.4b42PL1 Copyright (c) Steve Scherf et al.
# Submitted via: audiograbber 1.80
#
DISCID=63091408
DTITLE=Nitya - Breath of Love
DYEAR=1900
DGENRE=
TTITLE0=Open Heart
TTITLE1=Twilight Softness
TTITLE2=Breath of Joy
TTITLE3=Joyous Union
TTITLE4=Lovers Play
TTITLE5=Raga Bhageshvari
TTITLE6=Raga Malkiauns
TTITLE7=Mushkil Hai
EXTD=
EXTT0=
EXTT1=
EXTT2=
EXTT3=
EXTT4=
EXTT5=
EXTT6=
EXTT7=
PLAYORDER=
